<?xml version="1.0" encoding="UTF-8"?>
<!DOCTYPE svg PUBLIC "-//W3C//DTD SVG 1.1//EN" "http://www.w3.org/Graphics/SVG/1.1/DTD/svg11.dtd">
<!-- Creator: CorelDRAW 2021 (64-Bit) -->
<svg xmlns="http://www.w3.org/2000/svg" xml:space="preserve" width="200px" height="200px" version="1.1" style="shape-rendering:geometricPrecision; text-rendering:geometricPrecision; image-rendering:optimizeQuality; fill-rule:evenodd; clip-rule:evenodd"
viewBox="0 0 38.42 38.42"
 xmlns:xlink="http://www.w3.org/1999/xlink"
 xmlns:xodm="http://www.corel.com/coreldraw/odm/2003">
 <defs>
  <style type="text/css">
   <![CDATA[
    .fil0 {fill:#F0B90B}
    .fil1 {fill:white;fill-rule:nonzero}
   ]]>
  </style>
 </defs>
 <g id="Layer_x0020_1">
  <metadata id="CorelCorpID_0Corel-Layer"/>
  <circle class="fil0" cx="19.21" cy="19.21" r="19.21"/>
  <g id="_2627733927328">
   <path class="fil1" d="M9.98 19.21l0.02 5.42 4.6 2.71 0 3.17 -7.3 -4.28 0 -8.6 2.68 1.58 0 0zm0 -5.42l0 3.16 -2.68 -1.59 0 -3.15 2.68 -1.59 2.7 1.59 -2.7 1.58 0 0zm6.54 -1.58l2.69 -1.59 2.69 1.59 -2.69 1.58 -2.69 -1.58 0 0z"/>
   <path class="fil1" d="M11.92 23.51l0 -3.17 2.68 1.58 0 3.16 -2.68 -1.57 0 0zm4.6 4.97l2.69 1.58 2.69 -1.58 0 3.15 -2.69 1.59 -2.69 -1.59 0 -3.15 0 0zm9.23 -16.27l2.68 -1.59 2.69 1.59 0 3.15 -2.69 1.59 0 -3.16 -2.68 -1.58 0 0 0 0zm2.68 12.42l0.01 -5.42 2.68 -1.58 0 8.6 -7.3 4.28 0 -3.17 4.61 -2.71 0 0 0 0z"/>
   <polygon class="fil1" points="26.5,23.51 23.82,25.08 23.82,21.92 26.5,20.34 "/>
   <path class="fil1" d="M26.5 14.92l0.02 3.17 -4.62 2.71 0 5.43 -2.68 1.57 -2.68 -1.57 0 -5.43 -4.62 -2.71 0 -3.17 2.69 -1.59 4.59 2.72 4.62 -2.72 2.7 1.59 -0.02 0 0 0zm-14.58 -5.42l7.29 -4.3 7.29 4.3 -2.68 1.59 -4.61 -2.73 -4.61 2.73 -2.68 -1.59 0 0z"/>
  </g>
 </g>
</svg>
