<?xml version="1.0" encoding="UTF-8"?>
<!DOCTYPE svg PUBLIC "-//W3C//DTD SVG 1.1//EN" "http://www.w3.org/Graphics/SVG/1.1/DTD/svg11.dtd">
<!-- Creator: CorelDRAW 2021 (64-Bit) -->
<svg xmlns="http://www.w3.org/2000/svg" xml:space="preserve" width="200px" height="200px" version="1.1" style="shape-rendering:geometricPrecision; text-rendering:geometricPrecision; image-rendering:optimizeQuality; fill-rule:evenodd; clip-rule:evenodd"
viewBox="0 0 52.35 52.35"
 xmlns:xlink="http://www.w3.org/1999/xlink"
 xmlns:xodm="http://www.corel.com/coreldraw/odm/2003">
 <defs>
  <style type="text/css">
   <![CDATA[
    .fil1 {fill:#FEFEFE;fill-rule:nonzero}
    .fil0 {fill:#8247E5;fill-rule:nonzero}
   ]]>
  </style>
 </defs>
 <g id="Layer_x0020_1">
  <metadata id="CorelCorpID_0Corel-Layer"/>
  <circle class="fil0" cx="26.18" cy="26.18" r="26.18"/>
  <g id="_2627228828304">
   <g>
    <path class="fil1" d="M34.94 20.35c-0.62,-0.36 -1.42,-0.36 -2.13,0l-4.99 2.93 -3.38 1.87 -4.89 2.94c-0.63,0.36 -1.43,0.36 -2.14,0l-3.83 -2.31c-0.62,-0.36 -1.07,-1.07 -1.07,-1.87l0 -4.45c0,-0.72 0.36,-1.43 1.07,-1.87l3.83 -2.23c0.62,-0.35 1.42,-0.35 2.14,0l3.82 2.32c0.63,0.35 1.07,1.06 1.07,1.87l0 2.93 3.38 -1.95 0 -3.03c0,-0.71 -0.35,-1.43 -1.06,-1.87l-7.13 -4.18c-0.62,-0.36 -1.42,-0.36 -2.13,0l-7.3 4.27c-0.71,0.35 -1.07,1.07 -1.07,1.78l0 8.37c0,0.71 0.36,1.42 1.07,1.86l7.21 4.19c0.62,0.35 1.42,0.35 2.14,0l4.89 -2.85 3.38 -1.96 4.9 -2.85c0.62,-0.35 1.42,-0.35 2.13,0l3.83 2.23c0.62,0.35 1.07,1.07 1.07,1.87l0 4.45c0,0.71 -0.36,1.42 -1.07,1.87l-3.74 2.22c-0.62,0.36 -1.42,0.36 -2.13,0l-3.83 -2.22c-0.62,-0.36 -1.07,-1.07 -1.07,-1.87l0 -2.85 -3.38 1.96 0 2.93c0,0.72 0.36,1.43 1.07,1.87l7.21 4.19c0.62,0.35 1.42,0.35 2.13,0l7.21 -4.19c0.63,-0.35 1.07,-1.06 1.07,-1.87l0 -8.45c0,-0.71 -0.36,-1.42 -1.07,-1.87l-7.21 -4.18z"/>
   </g>
  </g>
 </g>
</svg>
