<?xml version="1.0" encoding="UTF-8"?>
<!DOCTYPE svg PUBLIC "-//W3C//DTD SVG 1.1//EN" "http://www.w3.org/Graphics/SVG/1.1/DTD/svg11.dtd">
<!-- Creator: CorelDRAW 2021 (64-Bit) -->
<svg xmlns="http://www.w3.org/2000/svg" xml:space="preserve" width="200px" height="200px" version="1.1" style="shape-rendering:geometricPrecision; text-rendering:geometricPrecision; image-rendering:optimizeQuality; fill-rule:evenodd; clip-rule:evenodd"
viewBox="0 0 30.65 30.65"
 xmlns:xlink="http://www.w3.org/1999/xlink"
 xmlns:xodm="http://www.corel.com/coreldraw/odm/2003">
 <defs>
  <style type="text/css">
   <![CDATA[
    .fil0 {fill:#002868;fill-rule:nonzero}
    .fil1 {fill:white;fill-rule:nonzero}
   ]]>
  </style>
 </defs>
 <g id="Layer_x0020_1">
  <metadata id="CorelCorpID_0Corel-Layer"/>
  <circle class="fil0" cx="15.33" cy="15.33" r="15.33"/>
  <g id="_2627377871728">
   <path id="BG_1_" class="fil1" d="M23.53 25.1l-16.41 0c-0.86,0 -1.56,-0.71 -1.56,-1.57l0 -16.41c0,-0.86 0.7,-1.56 1.56,-1.56l16.41 0c0.86,0 1.57,0.7 1.57,1.56l0 16.41c0,0.86 -0.71,1.57 -1.57,1.57z"/>
   <g>
    <path class="fil0" d="M9.37 23.13c-0.05,0 -0.09,-0.05 -0.09,-0.1l0 -2.62c0,-0.06 -0.05,-0.1 -0.1,-0.1l-0.92 0c-0.06,0 -0.1,-0.04 -0.1,-0.1l0 -0.5c0,-0.05 0.04,-0.1 0.1,-0.1l2.85 0c0.05,0 0.1,0.04 0.1,0.1l0 0.5c0,0.06 -0.05,0.1 -0.1,0.1l-0.92 0c-0.05,0 -0.1,0.04 -0.1,0.1l0 2.62c0,0.05 -0.04,0.1 -0.09,0.1l-0.63 0z"/>
    <path class="fil0" d="M14.05 19.71c0,-0.05 0.05,-0.1 0.1,-0.1l0.62 0c0.05,0 0.1,0.04 0.1,0.1l0 1.79c0,1.06 -0.6,1.68 -1.56,1.68 -0.94,0 -1.54,-0.62 -1.54,-1.68l0 -1.79c0,-0.05 0.04,-0.1 0.09,-0.1l0.63 0c0.05,0 0.09,0.04 0.09,0.1l0 1.81c0,0.53 0.27,0.9 0.74,0.9 0.47,0 0.73,-0.37 0.73,-0.9l0 -1.81z"/>
    <path class="fil0" d="M17.72 20.76c-0.08,0 -0.11,-0.03 -0.14,-0.1 -0.11,-0.25 -0.35,-0.41 -0.71,-0.41 -0.32,0 -0.6,0.11 -0.6,0.33 0,0.24 0.26,0.34 0.81,0.41 0.85,0.09 1.34,0.35 1.34,1.03 0,0.75 -0.66,1.15 -1.51,1.15 -0.74,0 -1.37,-0.36 -1.47,-1.11 -0.01,-0.07 0.03,-0.09 0.1,-0.09l0.57 0c0.07,0 0.12,0.03 0.14,0.08 0.07,0.25 0.34,0.44 0.72,0.44 0.34,0 0.63,-0.12 0.63,-0.38 0,-0.32 -0.31,-0.38 -0.93,-0.46 -0.71,-0.09 -1.21,-0.3 -1.21,-0.95 0,-0.66 0.56,-1.13 1.45,-1.13 0.8,0 1.35,0.43 1.46,1.07 0.02,0.07 0,0.12 -0.08,0.12l-0.57 0 0 0z"/>
    <path class="fil0" d="M19.12 23.13c-0.05,0 -0.09,-0.05 -0.09,-0.1l0 -3.32c0,-0.05 0.04,-0.1 0.09,-0.1l1.41 0c1.05,0 1.86,0.72 1.86,1.77 0,1.04 -0.8,1.75 -1.86,1.75l-1.41 0zm1.41 -0.7c0.57,0 1.01,-0.45 1.01,-1.06 0,-0.62 -0.44,-1.06 -1.01,-1.06l-0.59 0c-0.05,0 -0.09,0.04 -0.09,0.1l0 1.93c0,0.05 0.04,0.09 0.09,0.09l0.59 0 0 0z"/>
   </g>
   <path id="BG" class="fil0" d="M24.58 17.67l-18.5 0c-0.15,0 -0.26,-0.12 -0.26,-0.26l0 -10.29c0,-0.72 0.58,-1.3 1.3,-1.3l16.41 0c0.72,0 1.31,0.58 1.31,1.3l0 10.29c0,0.14 -0.12,0.26 -0.26,0.26z"/>
   <path id="_7C" class="fil1" d="M16.29 15.56l-1.7 0c-0.11,0 -0.19,-0.09 -0.19,-0.2l0 -7.16c0,-0.11 0.08,-0.2 0.19,-0.2l1.7 0c0.1,0 0.19,0.09 0.19,0.2l0 7.16c0,0.11 -0.09,0.2 -0.19,0.2z"/>
   <path id="_2014" class="fil1" d="M19.17 10.09l-7.69 0c-0.1,0 -0.19,-0.09 -0.19,-0.2l0 -1.69c0,-0.11 0.09,-0.2 0.19,-0.2l7.69 0c0.11,0 0.19,0.09 0.19,0.2l0 1.69c0,0.11 -0.08,0.2 -0.19,0.2z"/>
  </g>
 </g>
</svg>
