<?xml version="1.0" encoding="UTF-8"?>
<!DOCTYPE svg PUBLIC "-//W3C//DTD SVG 1.1//EN" "http://www.w3.org/Graphics/SVG/1.1/DTD/svg11.dtd">
<!-- Creator: CorelDRAW 2021 (64-Bit) -->
<svg xmlns="http://www.w3.org/2000/svg" xml:space="preserve" width="200px" height="200px" version="1.1" style="shape-rendering:geometricPrecision; text-rendering:geometricPrecision; image-rendering:optimizeQuality; fill-rule:evenodd; clip-rule:evenodd"
viewBox="0 0 26.37 26.37"
 xmlns:xlink="http://www.w3.org/1999/xlink"
 xmlns:xodm="http://www.corel.com/coreldraw/odm/2003">
 <defs>
  <style type="text/css">
   <![CDATA[
    .fil0 {fill:#F7931A;fill-rule:nonzero}
    .fil1 {fill:white;fill-rule:nonzero}
   ]]>
  </style>
 </defs>
 <g id="Layer_x0020_1">
  <metadata id="CorelCorpID_0Corel-Layer"/>
  <circle class="fil0" cx="13.19" cy="13.19" r="13.19"/>
  <path class="fil1" d="M20.05 11.4c0.29,-1.92 -1.17,-2.95 -3.17,-3.64l0.65 -2.6 -1.59 -0.4 -0.63 2.53c-0.41,-0.1 -0.84,-0.2 -1.27,-0.29l0.64 -2.55 -1.58 -0.4 -0.65 2.6c-0.34,-0.08 -0.68,-0.15 -1.01,-0.23l0 -0.01 -2.18 -0.55 -0.42 1.69c0,0 1.17,0.27 1.15,0.29 0.64,0.16 0.75,0.58 0.73,0.92l-0.73 2.96c0.04,0.01 0.1,0.03 0.16,0.05 -0.05,-0.01 -0.11,-0.02 -0.17,-0.04l-1.03 4.15c-0.08,0.2 -0.28,0.49 -0.73,0.38 0.02,0.02 -1.15,-0.29 -1.15,-0.29l-0.78 1.81 2.06 0.51c0.38,0.1 0.76,0.2 1.13,0.3l-0.66 2.63 1.58 0.39 0.65 -2.6c0.43,0.12 0.85,0.22 1.26,0.33l-0.65 2.58 1.59 0.4 0.65 -2.63c2.7,0.52 4.73,0.31 5.58,-2.13 0.69,-1.97 -0.03,-3.1 -1.45,-3.84 1.03,-0.24 1.81,-0.92 2.02,-2.32l0 0 0 0zm-3.62 5.07c-0.49,1.96 -3.79,0.9 -4.87,0.63l0.87 -3.48c1.07,0.27 4.51,0.8 4,2.85l0 0zm0.49 -5.1c-0.44,1.79 -3.2,0.88 -4.09,0.65l0.79 -3.15c0.89,0.22 3.77,0.63 3.3,2.5l0 0z"/>
 </g>
</svg>
