<?xml version="1.0" encoding="UTF-8"?>
<!DOCTYPE svg PUBLIC "-//W3C//DTD SVG 1.1//EN" "http://www.w3.org/Graphics/SVG/1.1/DTD/svg11.dtd">
<!-- Creator: CorelDRAW 2021 (64-Bit) -->
<svg xmlns="http://www.w3.org/2000/svg" xml:space="preserve" width="200px" height="200px" version="1.1" style="shape-rendering:geometricPrecision; text-rendering:geometricPrecision; image-rendering:optimizeQuality; fill-rule:evenodd; clip-rule:evenodd"
viewBox="0 0 66.65 66.65"
 xmlns:xlink="http://www.w3.org/1999/xlink"
 xmlns:xodm="http://www.corel.com/coreldraw/odm/2003">
 <defs>
  <style type="text/css">
   <![CDATA[
    .fil1 {fill:#FEFEFE;fill-rule:nonzero}
    .fil0 {fill:#345D9D;fill-rule:nonzero}
   ]]>
  </style>
 </defs>
 <g id="Layer_x0020_1">
  <metadata id="CorelCorpID_0Corel-Layer"/>
  <circle class="fil0" cx="33.32" cy="33.32" r="33.32"/>
  <path class="fil1" d="M33.18 33.68l-3.05 10.3 16.33 0c0.01,0 0.02,0 0.03,0 0.44,0 0.81,0.35 0.82,0.8l0 0.27 -1.42 4.89c-0.12,0.47 -0.54,0.79 -1.02,0.79 -0.01,0 -0.03,0 -0.04,0l-25 0 4.19 -14.28 -4.68 1.42 1.06 -3.26 4.69 -1.42 5.89 -20.02c0.13,-0.47 0.55,-0.79 1.03,-0.79 0.01,0 0.03,0 0.04,0l6.32 0c0,0 0.01,0 0.02,0 0.45,0 0.81,0.36 0.83,0.8l0 0.27 -4.97 16.9 4.68 -1.42 -0.99 3.41 -4.76 1.34z"/>
 </g>
</svg>
