<?xml version="1.0" encoding="UTF-8"?>
<!DOCTYPE svg PUBLIC "-//W3C//DTD SVG 1.1//EN" "http://www.w3.org/Graphics/SVG/1.1/DTD/svg11.dtd">
<!-- Creator: CorelDRAW 2021 (64-Bit) -->
<svg xmlns="http://www.w3.org/2000/svg" xml:space="preserve" width="235px" height="186px" version="1.1" style="shape-rendering:geometricPrecision; text-rendering:geometricPrecision; image-rendering:optimizeQuality; fill-rule:evenodd; clip-rule:evenodd"
viewBox="0 0 28.14 22.25"
 xmlns:xlink="http://www.w3.org/1999/xlink"
 xmlns:xodm="http://www.corel.com/coreldraw/odm/2003">
 <defs>
  <style type="text/css">
   <![CDATA[
    .fil5 {fill:none}
    .fil0 {fill:#FEFEFE}
    .fil4 {fill:#454A75}
    .fil3 {fill:#62688F}
    .fil2 {fill:#8991B1}
    .fil1 {fill:#FEFEFE;fill-rule:nonzero}
   ]]>
  </style>
 </defs>
 <g id="Layer_x0020_1">
  <metadata id="CorelCorpID_0Corel-Layer"/>
  <g id="_2087901302768">
   <polygon class="fil0" points="13.61,18.54 15.02,18.54 15.02,19.95 13.61,19.95 "/>
   <path class="fil1" d="M12 17.06c0.03,-0.09 0.09,-0.16 0.17,-0.21 0.09,-0.06 0.17,-0.08 0.25,-0.08 0.13,0 0.24,0.03 0.33,0.11 0.08,0.07 0.13,0.17 0.13,0.29 0,0.01 0,0.04 -0.01,0.07 0,0.03 0,0.05 -0.01,0.07l-1.23 3.58c-0.05,0.12 -0.11,0.23 -0.18,0.31 -0.07,0.08 -0.18,0.12 -0.34,0.12 -0.15,0 -0.26,-0.05 -0.33,-0.13 -0.08,-0.08 -0.13,-0.18 -0.18,-0.3l-1.22 -3.58c-0.01,-0.02 -0.02,-0.04 -0.02,-0.07 0,-0.03 0,-0.06 0,-0.07 0,-0.12 0.04,-0.22 0.13,-0.29 0.09,-0.08 0.2,-0.11 0.32,-0.11 0.08,0 0.16,0.02 0.24,0.07 0.08,0.06 0.14,0.13 0.18,0.22l0.77 2.43c0.03,0.09 0.05,0.19 0.07,0.31 0.02,0.11 0.03,0.21 0.04,0.31 0.02,-0.1 0.03,-0.2 0.05,-0.31 0.02,-0.12 0.04,-0.22 0.07,-0.31l0.77 -2.43z"/>
   <path class="fil1" d="M8.99 20.85c0,0.11 -0.05,0.21 -0.13,0.29 -0.09,0.08 -0.19,0.12 -0.31,0.12l-1.67 0c-0.08,0 -0.15,-0.01 -0.22,-0.02 -0.07,-0.02 -0.14,-0.04 -0.19,-0.08 -0.05,-0.03 -0.1,-0.08 -0.13,-0.13 -0.03,-0.06 -0.05,-0.13 -0.05,-0.22l0 -3.54c0,-0.06 0.02,-0.11 0.04,-0.16 0.03,-0.06 0.06,-0.11 0.1,-0.15 0.04,-0.04 0.09,-0.07 0.15,-0.1 0.06,-0.03 0.13,-0.04 0.2,-0.04l1.7 0c0.13,0 0.23,0.04 0.31,0.12 0.09,0.09 0.13,0.18 0.13,0.29 0,0.11 -0.04,0.21 -0.13,0.28 -0.08,0.07 -0.18,0.11 -0.31,0.11l-1.31 0 0 1.01 1.19 0c0.11,0 0.21,0.04 0.3,0.12 0.09,0.07 0.14,0.17 0.14,0.28 0,0.11 -0.04,0.21 -0.13,0.29 -0.08,0.08 -0.18,0.11 -0.31,0.11l-1.19 0 0 1.03 1.38 0c0.11,0 0.22,0.04 0.3,0.11 0.09,0.08 0.14,0.17 0.14,0.28z"/>
   <path class="fil1" d="M5.51 20.92c0,0.11 -0.04,0.2 -0.13,0.28 -0.08,0.08 -0.18,0.12 -0.3,0.12 -0.12,0 -0.23,-0.04 -0.32,-0.12 -0.08,-0.08 -0.13,-0.17 -0.13,-0.28l0 -2.17 -0.72 1.41c-0.04,0.09 -0.1,0.15 -0.17,0.19 -0.07,0.03 -0.15,0.05 -0.24,0.05 -0.08,0 -0.16,-0.02 -0.24,-0.05 -0.07,-0.04 -0.13,-0.1 -0.17,-0.19l-0.72 -1.41 0 2.17c0,0.11 -0.04,0.2 -0.13,0.28 -0.09,0.08 -0.2,0.12 -0.32,0.12 -0.12,0 -0.22,-0.04 -0.31,-0.12 -0.08,-0.08 -0.12,-0.17 -0.12,-0.28l0 -3.74c0,-0.12 0.04,-0.22 0.13,-0.3 0.09,-0.08 0.19,-0.11 0.32,-0.11 0.21,0 0.36,0.08 0.45,0.24l1.12 2.22 1.12 -2.23c0.04,-0.09 0.1,-0.15 0.18,-0.18 0.08,-0.04 0.16,-0.05 0.25,-0.05 0.13,0 0.24,0.04 0.32,0.12 0.09,0.08 0.13,0.18 0.13,0.29l0 3.74z"/>
   <path class="fil1" d="M24.91 17.62l-0.67 0c-0.13,0 -0.23,-0.04 -0.31,-0.12 -0.09,-0.07 -0.13,-0.17 -0.13,-0.28 0,-0.04 0.01,-0.08 0.03,-0.13 0.03,-0.05 0.06,-0.09 0.1,-0.13 0.04,-0.04 0.09,-0.07 0.14,-0.1 0.05,-0.03 0.11,-0.04 0.17,-0.04l2.22 0c0.11,0 0.21,0.04 0.3,0.12 0.1,0.08 0.14,0.17 0.14,0.28 0,0.11 -0.04,0.21 -0.13,0.28 -0.09,0.08 -0.19,0.12 -0.31,0.12l-0.67 0 0 3.29c0,0.11 -0.04,0.21 -0.13,0.29 -0.09,0.08 -0.19,0.12 -0.31,0.12 -0.12,0 -0.23,-0.04 -0.31,-0.12 -0.09,-0.08 -0.13,-0.18 -0.13,-0.29l0 -3.29zm-3.08 -0.06c-0.28,0 -0.47,0.08 -0.59,0.24 -0.11,0.15 -0.17,0.36 -0.17,0.61l0 1.25c0,0.25 0.07,0.46 0.19,0.62 0.12,0.16 0.31,0.24 0.57,0.24 0.26,0 0.45,-0.08 0.57,-0.24 0.12,-0.16 0.19,-0.37 0.19,-0.62l0 -1.25c0,-0.25 -0.06,-0.46 -0.17,-0.61 -0.12,-0.16 -0.31,-0.24 -0.59,-0.24zm0 3.76c-0.27,0 -0.51,-0.05 -0.71,-0.13 -0.21,-0.09 -0.38,-0.21 -0.51,-0.36 -0.14,-0.14 -0.24,-0.32 -0.31,-0.52 -0.07,-0.2 -0.11,-0.42 -0.11,-0.65l0 -1.25c0,-0.22 0.03,-0.43 0.1,-0.63 0.06,-0.2 0.15,-0.37 0.28,-0.52 0.13,-0.15 0.3,-0.27 0.51,-0.36 0.21,-0.09 0.46,-0.13 0.75,-0.13 0.29,0 0.54,0.04 0.75,0.13 0.21,0.09 0.38,0.21 0.51,0.36 0.13,0.15 0.22,0.32 0.29,0.52 0.06,0.2 0.09,0.41 0.09,0.63l0 1.25c0,0.23 -0.04,0.45 -0.11,0.65 -0.07,0.2 -0.17,0.38 -0.31,0.52 -0.13,0.15 -0.3,0.27 -0.51,0.36 -0.2,0.08 -0.44,0.13 -0.71,0.13zm-4.69 -0.06c-0.14,0 -0.26,-0.05 -0.35,-0.14 -0.1,-0.09 -0.15,-0.19 -0.15,-0.31l0 -3.53c0,-0.13 0.05,-0.24 0.15,-0.33 0.1,-0.08 0.21,-0.13 0.35,-0.13l1.06 0c0.23,0 0.44,0.04 0.62,0.11 0.18,0.07 0.32,0.16 0.44,0.27 0.12,0.12 0.21,0.25 0.27,0.4 0.06,0.15 0.08,0.3 0.08,0.46 0,0.22 -0.06,0.4 -0.18,0.54 -0.13,0.14 -0.29,0.26 -0.48,0.35 0.1,0.04 0.2,0.08 0.29,0.14 0.09,0.06 0.18,0.13 0.25,0.21 0.08,0.08 0.13,0.17 0.18,0.27 0.04,0.11 0.06,0.23 0.06,0.37 0,0.18 -0.03,0.35 -0.1,0.51 -0.07,0.16 -0.18,0.3 -0.31,0.42 -0.14,0.12 -0.3,0.22 -0.49,0.29 -0.19,0.06 -0.41,0.1 -0.66,0.1l-1.03 0zm0.39 -1.9l0 1.1 0.7 0c0.21,0 0.37,-0.05 0.47,-0.14 0.1,-0.1 0.15,-0.23 0.15,-0.4 0,-0.18 -0.05,-0.31 -0.16,-0.41 -0.11,-0.1 -0.25,-0.15 -0.42,-0.15l-0.74 0zm0.72 -0.8c0.05,0 0.11,-0.01 0.17,-0.03 0.05,-0.02 0.1,-0.05 0.15,-0.09 0.05,-0.04 0.09,-0.09 0.12,-0.15 0.03,-0.06 0.04,-0.14 0.04,-0.22 0,-0.12 -0.03,-0.23 -0.09,-0.32 -0.07,-0.09 -0.18,-0.13 -0.35,-0.13l-0.76 0 0 0.94 0.72 0z"/>
  </g>
  <g id="_2087901300080">
   <circle class="fil0" cx="14.2" cy="7.88" r="7.19"/>
   <g>
    <path class="fil2" d="M18.13 8c0,0 -0.01,-0.01 -0.01,0l-0.96 -0.45c-0.34,-0.14 -0.65,-0.3 -0.99,-0.45 -0.25,-0.11 -1.88,-0.87 -1.97,-0.88l0 -4.73c0.06,0.03 0.04,0.03 0.08,0.09 0.02,0.04 0.04,0.06 0.06,0.1 0.04,0.08 0.08,0.13 0.12,0.21 0.05,0.07 0.08,0.13 0.12,0.2 0.05,0.07 0.09,0.13 0.13,0.2l1.11 1.84c0.04,0.06 0.07,0.13 0.11,0.2l0.87 1.43c0.04,0.08 0.07,0.12 0.12,0.2l1.11 1.84c0.03,0.06 0.12,0.16 0.1,0.2z"/>
    <path class="fil3" d="M14.2 6.22c-0.08,0 -2.5,1.14 -2.93,1.32 -0.22,0.1 -0.83,0.39 -0.99,0.45 0.01,-0.08 0.65,-1.1 0.73,-1.22l2.82 -4.7c0.04,-0.07 0.08,-0.14 0.12,-0.2l0.19 -0.31c0.07,-0.12 0.05,-0.08 0.06,-0.07l0 4.73z"/>
    <path class="fil3" d="M18.13 8l-2.93 1.74c-0.05,0.03 -0.08,0.05 -0.12,0.07 -0.04,0.03 -0.08,0.05 -0.12,0.07 -0.11,0.07 -0.66,0.41 -0.76,0.43l0 -4.09c0.09,0.01 1.72,0.77 1.97,0.88 0.34,0.15 0.65,0.31 0.99,0.45l0.96 0.45c0,-0.01 0.01,0 0.01,0z"/>
    <path class="fil4" d="M14.2 10.31c-0.03,0.03 -0.2,-0.1 -0.23,-0.12l-1.48 -0.87c-0.49,-0.27 -1.01,-0.61 -1.49,-0.89l-0.7 -0.4c-0.06,-0.05 -0.03,-0.02 -0.02,-0.04 0.16,-0.06 0.77,-0.35 0.99,-0.45 0.43,-0.18 2.85,-1.32 2.93,-1.32l0 4.09z"/>
    <path class="fil3" d="M14.2 11.05c0.02,0.2 0,0.58 0,0.8l0.02 2.41c0,0 0,0.01 0.01,0.01 -0.06,0.02 -0.05,0 -0.07,-0.04 -0.03,-0.03 -0.05,-0.06 -0.07,-0.09l-0.61 -0.87c-0.05,-0.06 -0.09,-0.1 -0.13,-0.17 -0.04,-0.06 -0.07,-0.11 -0.12,-0.18l-0.74 -1.04c-0.09,-0.12 -0.17,-0.22 -0.25,-0.35l-1.98 -2.79c0.08,0.02 3.35,1.97 3.44,2.02l0.5 0.29z"/>
    <path class="fil2" d="M14.23 14.27c-0.01,0 -0.01,-0.01 -0.01,-0.01l-0.02 -2.41c0,-0.22 0.02,-0.6 0,-0.8 0.07,-0.02 0.17,-0.09 0.24,-0.13l3.56 -2.1c0.05,-0.03 0.08,-0.06 0.13,-0.08 -0.01,0.07 -0.01,0.04 -0.05,0.09 -0.02,0.04 -0.03,0.06 -0.06,0.09 -0.27,0.37 -0.58,0.83 -0.85,1.2l-1.34 1.89c-0.05,0.07 -0.09,0.12 -0.13,0.18l-0.98 1.38c-0.05,0.07 -0.08,0.11 -0.12,0.17l-0.37 0.53z"/>
   </g>
  </g>
  <rect class="fil5" width="28.14" height="22.25"/>
 </g>
</svg>
