<?xml version="1.0" encoding="UTF-8"?>
<!DOCTYPE svg PUBLIC "-//W3C//DTD SVG 1.1//EN" "http://www.w3.org/Graphics/SVG/1.1/DTD/svg11.dtd">
<!-- Creator: CorelDRAW 2021 (64-Bit) -->
<svg xmlns="http://www.w3.org/2000/svg" xml:space="preserve" width="200px" height="200px" version="1.1" style="shape-rendering:geometricPrecision; text-rendering:geometricPrecision; image-rendering:optimizeQuality; fill-rule:evenodd; clip-rule:evenodd"
viewBox="0 0 788.46 788.46"
 xmlns:xlink="http://www.w3.org/1999/xlink"
 xmlns:xodm="http://www.corel.com/coreldraw/odm/2003">
 <defs>
  <style type="text/css">
   <![CDATA[
    .fil0 {fill:#50AF95}
    .fil1 {fill:white}
   ]]>
  </style>
 </defs>
 <g id="Layer_x0020_1">
  <metadata id="CorelCorpID_0Corel-Layer"/>
  <circle class="fil0" cx="394.23" cy="394.23" r="394.23"/>
  <g id="_2627505092304">
   <path class="fil1" d="M440.53 433.88l0 0c-2.58,0.19 -15.95,0.99 -45.77,0.99 -23.72,0 -40.56,-0.71 -46.47,-0.99l0 0c-91.66,-4.04 -160.07,-19.99 -160.07,-39.1 0,-19.1 68.41,-35.03 160.07,-39.13l0 62.33c6,0.44 23.16,1.45 46.88,1.45 28.46,0 42.71,-1.19 45.28,-1.42l0 -62.32c91.46,4.08 159.73,20.03 159.73,39.09 0,19.06 -68.25,35.02 -159.73,39.07l0 0 0.08 0.03zm0 -84.63l0 -55.78 127.65 0 0 -85.07 -347.53 0 0 85.07 127.62 0 0 55.75c-103.73,4.77 -181.74,25.32 -181.74,49.94 0,24.62 78.01,45.15 181.74,49.94l0 178.74 92.24 0 0 -178.81c103.5,-4.76 181.38,-25.29 181.38,-49.89 0,-24.6 -77.82,-45.13 -181.38,-49.92l0 0 0.02 0.03zm0 0l0 0z"/>
  </g>
 </g>
</svg>
