<?xml version="1.0" encoding="UTF-8"?>
<!DOCTYPE svg PUBLIC "-//W3C//DTD SVG 1.1//EN" "http://www.w3.org/Graphics/SVG/1.1/DTD/svg11.dtd">
<!-- Creator: CorelDRAW 2021 (64-Bit) -->
<svg xmlns="http://www.w3.org/2000/svg" xml:space="preserve" width="200px" height="200px" version="1.1" style="shape-rendering:geometricPrecision; text-rendering:geometricPrecision; image-rendering:optimizeQuality; fill-rule:evenodd; clip-rule:evenodd"
viewBox="0 0 110.07 110.07"
 xmlns:xlink="http://www.w3.org/1999/xlink"
 xmlns:xodm="http://www.corel.com/coreldraw/odm/2003">
 <defs>
  <style type="text/css">
   <![CDATA[
    .fil0 {fill:#2775CA;fill-rule:nonzero}
    .fil1 {fill:white;fill-rule:nonzero}
   ]]>
  </style>
 </defs>
 <g id="Layer_x0020_1">
  <metadata id="CorelCorpID_0Corel-Layer"/>
  <circle class="fil0" cx="55.03" cy="55.03" r="55.03"/>
  <g id="_2627387584832">
   <path class="fil1" d="M69.7 62.81c0,-7.78 -4.67,-10.44 -14,-11.55 -6.66,-0.89 -8,-2.67 -8,-5.78 0,-3.11 2.23,-5.11 6.67,-5.11 4,0 6.22,1.34 7.33,4.67 0.22,0.66 0.89,1.11 1.55,1.11l3.56 0c0.89,0 1.55,-0.67 1.55,-1.56l0 -0.22c-0.89,-4.89 -4.88,-8.66 -9.99,-9.11l0 -5.33c0,-0.89 -0.67,-1.55 -1.78,-1.77l-3.33 0c-0.89,0 -1.56,0.66 -1.78,1.77l0 5.11c-6.66,0.89 -10.88,5.33 -10.88,10.89 0,7.33 4.44,10.21 13.77,11.33 6.22,1.11 8.22,2.44 8.22,5.99 0,3.56 -3.11,6 -7.33,6 -5.78,0 -7.78,-2.44 -8.44,-5.77 -0.23,-0.89 -0.89,-1.34 -1.56,-1.34l-3.78 0c-0.88,0 -1.55,0.67 -1.55,1.56l0 0.22c0.89,5.55 4.44,9.55 11.77,10.66l0 5.33c0,0.89 0.67,1.56 1.78,1.78l3.33 0c0.89,0 1.56,-0.67 1.78,-1.78l0 -5.33c6.66,-1.11 11.11,-5.77 11.11,-11.77l0 0z"/>
   <path class="fil1" d="M43.71 86.13c-17.33,-6.22 -26.22,-25.54 -19.77,-42.65 3.33,-9.33 10.66,-16.43 19.77,-19.77 0.88,-0.44 1.33,-1.11 1.33,-2.22l0 -3.11c0,-0.89 -0.45,-1.55 -1.33,-1.77 -0.23,0 -0.67,0 -0.89,0.22 -21.11,6.66 -32.66,29.1 -25.99,50.2 4,12.44 13.55,21.99 25.99,25.99 0.89,0.44 1.77,0 2,-0.89 0.22,-0.22 0.22,-0.44 0.22,-0.89l0 -3.11c0,-0.66 -0.67,-1.55 -1.33,-2l0 0zm23.54 -69.3c-0.89,-0.45 -1.78,0 -2,0.89 -0.22,0.22 -0.22,0.44 -0.22,0.88l0 3.11c0,0.89 0.67,1.78 1.33,2.23 17.33,6.22 26.22,25.54 19.77,42.65 -3.33,9.33 -10.66,16.43 -19.77,19.77 -0.89,0.44 -1.33,1.11 -1.33,2.22l0 3.11c0,0.89 0.44,1.55 1.33,1.77 0.23,0 0.67,0 0.89,-0.22 21.1,-6.66 32.66,-29.1 25.99,-50.2 -4,-12.66 -13.77,-22.21 -25.99,-26.21l0 0z"/>
  </g>
 </g>
</svg>
